<svg xmlns="http://www.w3.org/2000/svg" x="0px" y="0px"
width="48" height="48"
viewBox="0 0 172 172"
style=" fill:#000000;"><g fill="none" fill-rule="nonzero" stroke="none" stroke-width="1" stroke-linecap="butt" stroke-linejoin="miter" stroke-miterlimit="10" stroke-dasharray="" stroke-dashoffset="0" font-family="none" font-weight="none" font-size="none" text-anchor="none" style="mix-blend-mode: normal"><path d="M0,172v-172h172v172z" fill="none"></path><g fill="#6264a7"><path d="M137.95117,129h-103.90233c-4.31792,0 -8.2775,-2.17508 -10.58875,-5.82292c-2.31125,-3.64783 -2.59792,-8.15208 -0.75967,-12.05792l9.54958,-19.21383v-22.45675c0,-29.52308 22.47108,-53.70342 51.15925,-55.05433v0c14.87442,-0.67367 28.95333,4.55442 39.68542,14.792c10.74283,10.24475 16.65533,24.0585 16.65533,38.89708v23.822l9.49583,19.10992c1.88842,4.00975 1.60533,8.51758 -0.70592,12.16542c-2.31125,3.64783 -6.27083,5.81933 -10.58875,5.81933zM83.66367,19.76567h0.03583zM64.8225,136.16667c1.71283,10.15158 10.54217,17.91667 21.1775,17.91667c10.63533,0 19.46108,-7.76508 21.1775,-17.91667z"></path></g></g></svg>