<svg xmlns="http://www.w3.org/2000/svg" x="0px" y="0px"
width="50" height="50"
viewBox="0 0 172 172"
style=" fill:#000000;"><g fill="none" fill-rule="nonzero" stroke="none" stroke-width="1" stroke-linecap="butt" stroke-linejoin="miter" stroke-miterlimit="10" stroke-dasharray="" stroke-dashoffset="0" font-family="none" font-weight="none" font-size="none" text-anchor="none" style="mix-blend-mode: normal"><path d="M0,172v-172h172v172z" fill="none"></path><g fill="#6264a7"><path d="M86.34265,6.88c-4.83599,0 -9.77317,1.86335 -13.77344,4.91141c-4.00026,3.04806 -7.20922,7.52376 -7.20922,12.90672v2.59344c-24.00891,7.58074 -41.28,27.92102 -41.28,51.82844v17.37469h-3.44c-2.80933,0 -5.41409,1.13425 -7.28312,3.00328l-0.01344,0.01344l-0.02016,0.02016c-1.80788,1.858 -3.00328,4.43209 -3.00328,7.28312c0,0.29407 0.0627,0.57184 0.08734,0.86h-0.08734v29.92531c0,7.55237 6.20764,13.76 13.76,13.76h2.35828c3.8743,8.12107 12.13994,13.76 21.72172,13.76h75.68c9.58178,0 17.84742,-5.63893 21.72172,-13.76h2.35828c7.55237,0 13.76,-6.20763 13.76,-13.76v-30.27469h-0.10078c0.0157,-0.23057 0.06719,-0.45106 0.06719,-0.68531c0,-2.85103 -1.19539,-5.42501 -3.00328,-7.28313l-0.02016,-0.02015l-0.01344,-0.01344c-1.86892,-1.86891 -4.47379,-3.00328 -7.28313,-3.00328h-3.4064v-17.2c0,-23.90742 -17.27109,-44.24769 -41.28,-51.82844v-2.59344c0,-5.28368 -2.9621,-9.77399 -6.79937,-12.85297c-3.83727,-3.07898 -8.66198,-4.96516 -13.49797,-4.96516zM86.34265,13.76c2.93841,0 6.54412,1.32941 9.19125,3.45344c2.64713,2.12402 4.2261,4.82196 4.2261,7.48469v0.79953c-4.43271,-0.89891 -9.02542,-1.41766 -13.76,-1.41766c-4.73458,0 -9.32729,0.51874 -13.76,1.41766v-0.79953c0,-2.56345 1.67342,-5.276 4.50156,-7.43094c2.82814,-2.15494 6.66268,-3.50719 9.60109,-3.50719zM85.91937,41.28672c17.58872,0.40592 32.37051,7.18342 40.70219,18.60422c1.12144,1.53424 0.78174,3.69263 -0.7525,4.81063c-1.53424,1.12144 -3.68591,0.78174 -4.80391,-0.7525c-7.06232,-9.67672 -19.87218,-15.4313 -35.14578,-15.78906c-15.11536,0.35776 -27.92237,6.1089 -34.97781,15.78906c-0.67768,0.92192 -1.72532,1.41094 -2.78828,1.41094c-0.70176,0 -1.41347,-0.21124 -2.02235,-0.65844c-1.53424,-1.12144 -1.8705,-3.27639 -0.7525,-4.81063c8.33168,-11.4208 23.10702,-18.1983 40.54094,-18.60422zM123.84,68.99485c1.89888,0 3.44,1.54112 3.44,3.44v7.05469c0,1.89888 -1.54112,3.44 -3.44,3.44c-1.89888,0 -3.44,-1.54112 -3.44,-3.44v-7.05469c0,-1.89888 1.54112,-3.44 3.44,-3.44zM55.04,96.32h61.92c3.784,0 6.88,3.096 6.88,6.88v34.4c0,3.784 -3.096,6.88 -6.88,6.88h-61.92c-3.784,0 -6.88,-3.096 -6.88,-6.88v-34.4c0,-3.784 3.096,-6.88 6.88,-6.88zM58.48,103.2c-1.89888,0 -3.44,1.54112 -3.44,3.44c0,1.89888 1.54112,3.44 3.44,3.44h55.04c1.89888,0 3.44,-1.54112 3.44,-3.44c0,-1.89888 -1.54112,-3.44 -3.44,-3.44zM147.92,103.2h3.4064c0.96676,0 1.7921,0.38178 2.3986,0.98094c0.65525,0.68375 1.0414,1.53646 1.0414,2.45906c0,1.90763 -1.53236,3.44 -3.44,3.44h-3.4064zM20.64,103.37469h3.44v6.88h-3.44c-1.90764,0 -3.44,-1.53236 -3.44,-3.44c0,-0.92261 0.38615,-1.77532 1.04141,-2.45906c0.60649,-0.59916 1.43184,-0.98094 2.39859,-0.98094zM154.8,116.30828v21.29172c0,3.79963 -3.08037,6.88 -6.88,6.88h-0.27547c0.16234,-1.12689 0.27547,-2.26886 0.27547,-3.44v-24.08h3.4064c1.22261,0 2.38123,-0.25381 3.4736,-0.65172zM17.2,116.48969c1.08333,0.39054 2.22931,0.645 3.44,0.645h3.44v23.90531c0,1.17114 0.11313,2.31311 0.27547,3.44h-0.27547c-3.79964,0 -6.88,-3.08037 -6.88,-6.88zM61.92,127.28c-1.89888,0 -3.44,1.54112 -3.44,3.44c0,1.89888 1.54112,3.44 3.44,3.44h6.88c1.89888,0 3.44,-1.54112 3.44,-3.44c0,-1.89888 -1.54112,-3.44 -3.44,-3.44zM82.56,127.28c-1.89888,0 -3.44,1.54112 -3.44,3.44c0,1.89888 1.54112,3.44 3.44,3.44h6.88c1.89888,0 3.44,-1.54112 3.44,-3.44c0,-1.89888 -1.54112,-3.44 -3.44,-3.44zM103.2,127.28c-1.89888,0 -3.44,1.54112 -3.44,3.44c0,1.89888 1.54112,3.44 3.44,3.44h6.88c1.89888,0 3.44,-1.54112 3.44,-3.44c0,-1.89888 -1.54112,-3.44 -3.44,-3.44z"></path></g></g></svg>