<svg xmlns="http://www.w3.org/2000/svg" x="0px" y="0px"
width="48" height="48"
viewBox="0 0 172 172"
style=" fill:#000000;"><g fill="none" fill-rule="nonzero" stroke="none" stroke-width="1" stroke-linecap="butt" stroke-linejoin="miter" stroke-miterlimit="10" stroke-dasharray="" stroke-dashoffset="0" font-family="none" font-weight="none" font-size="none" text-anchor="none" style="mix-blend-mode: normal"><path d="M0,172v-172h172v172z" fill="none"></path><g fill="#6264a7"><path d="M150.5,50.16667v-5.375c0,-12.84267 -10.449,-23.29167 -23.29167,-23.29167h-82.41667c-12.84267,0 -23.29167,10.449 -23.29167,23.29167v5.375zM21.5,60.91667v66.29167c0,12.84267 10.449,23.29167 23.29167,23.29167h82.41667c12.84267,0 23.29167,-10.449 23.29167,-23.29167v-66.29167zM55.54167,129c-4.94858,0 -8.95833,-4.00975 -8.95833,-8.95833c0,-4.94858 4.00975,-8.95833 8.95833,-8.95833c4.94858,0 8.95833,4.00975 8.95833,8.95833c0,4.94858 -4.00975,8.95833 -8.95833,8.95833zM55.54167,96.75c-4.94858,0 -8.95833,-4.00975 -8.95833,-8.95833c0,-4.94858 4.00975,-8.95833 8.95833,-8.95833c4.94858,0 8.95833,4.00975 8.95833,8.95833c0,4.94858 -4.00975,8.95833 -8.95833,8.95833zM86,129c-4.94858,0 -8.95833,-4.00975 -8.95833,-8.95833c0,-4.94858 4.00975,-8.95833 8.95833,-8.95833c4.94858,0 8.95833,4.00975 8.95833,8.95833c0,4.94858 -4.00975,8.95833 -8.95833,8.95833zM86,96.75c-4.94858,0 -8.95833,-4.00975 -8.95833,-8.95833c0,-4.94858 4.00975,-8.95833 8.95833,-8.95833c4.94858,0 8.95833,4.00975 8.95833,8.95833c0,4.94858 -4.00975,8.95833 -8.95833,8.95833zM116.45833,96.75c-4.94858,0 -8.95833,-4.00975 -8.95833,-8.95833c0,-4.94858 4.00975,-8.95833 8.95833,-8.95833c4.94858,0 8.95833,4.00975 8.95833,8.95833c0,4.94858 -4.00975,8.95833 -8.95833,8.95833z"></path></g></g></svg>