<svg xmlns="http://www.w3.org/2000/svg" x="0px" y="0px"
width="48" height="48"
viewBox="0 0 172 172"
style=" fill:#000000;"><g fill="none" fill-rule="nonzero" stroke="none" stroke-width="1" stroke-linecap="butt" stroke-linejoin="miter" stroke-miterlimit="10" stroke-dasharray="" stroke-dashoffset="0" font-family="none" font-weight="none" font-size="none" text-anchor="none" style="mix-blend-mode: normal"><path d="M0,172v-172h172v172z" fill="none"></path><g fill="#6264a7"><path d="M82.11567,23.73958l6.15975,14.53042c2.68392,6.33175 1.19683,13.77792 -3.68367,18.40758l-11.50967,10.922c-1.29717,1.23267 -1.97083,3.02075 -1.68058,4.78375c1.11083,6.74025 3.57258,13.38733 7.38525,19.94483c3.8055,6.54317 8.43875,12.11167 13.90333,16.70192c1.44767,1.21475 3.45792,1.53008 5.24958,0.93167l13.42675,-4.47917c6.18125,-2.06042 12.91075,0.30817 16.70192,5.87667l8.83292,12.97525c4.4075,6.47508 3.61558,15.40475 -1.85258,20.89442l-5.86233,5.88383c-5.83367,5.85517 -14.16492,7.98008 -21.87267,5.57567c-18.19617,-5.676 -34.92317,-22.52483 -50.18817,-50.55008c-15.2865,-28.06467 -20.67942,-51.8795 -16.18233,-71.43733c1.892,-8.23092 7.75075,-14.78483 15.40117,-17.22867l7.71492,-2.46533c7.23833,-2.30408 14.96042,1.42975 18.05642,8.73258z"></path></g></g></svg>