<svg xmlns="http://www.w3.org/2000/svg" x="0px" y="0px"
width="48" height="48"
viewBox="0 0 172 172"
style=" fill:#000000;"><g fill="none" fill-rule="nonzero" stroke="none" stroke-width="1" stroke-linecap="butt" stroke-linejoin="miter" stroke-miterlimit="10" stroke-dasharray="" stroke-dashoffset="0" font-family="none" font-weight="none" font-size="none" text-anchor="none" style="mix-blend-mode: normal"><path d="M0,172v-172h172v172z" fill="none"></path><g fill="#6264a7"><path d="M157.66667,86c0,39.517 -32.14967,71.66667 -71.66667,71.66667c-11.40575,0 -22.71117,-2.75917 -32.84125,-7.98725l-27.45192,7.66475c-0.79192,0.215 -1.59817,0.3225 -2.40083,0.3225c-2.34708,0 -4.644,-0.9245 -6.34608,-2.623c-2.28258,-2.28617 -3.1605,-5.633 -2.29333,-8.73975l7.66475,-27.43758c-5.23883,-10.14083 -7.998,-21.45342 -7.998,-32.86633c0,-39.52058 32.14967,-71.66667 71.66667,-71.66667c39.517,0 71.66667,32.14608 71.66667,71.66667zM121.83333,73.45475c0,-2.967 -2.40442,-5.375 -5.375,-5.375h-60.91667c-2.97058,0 -5.375,2.408 -5.375,5.375c0,2.967 2.40442,5.375 5.375,5.375h60.91667c2.97058,0 5.375,-2.408 5.375,-5.375zM107.5,98.53808c0,-2.967 -2.40442,-5.375 -5.375,-5.375h-46.58333c-2.97058,0 -5.375,2.408 -5.375,5.375c0,2.967 2.40442,5.375 5.375,5.375h46.58333c2.97058,0 5.375,-2.408 5.375,-5.375z"></path></g></g></svg>