<svg xmlns="http://www.w3.org/2000/svg" x="0px" y="0px"
width="24" height="24"
viewBox="0 0 172 172"
style=" fill:#000000;"><g fill="none" fill-rule="nonzero" stroke="none" stroke-width="1" stroke-linecap="butt" stroke-linejoin="miter" stroke-miterlimit="10" stroke-dasharray="" stroke-dashoffset="0" font-family="none" font-weight="none" font-size="none" text-anchor="none" style="mix-blend-mode: normal"><path d="M0,172v-172h172v172z" fill="none"></path><g fill="#6264a7"><path d="M89.58333,14.33333c-6.97927,0.0007 -13.52394,3.3891 -17.55314,9.08785c-4.02919,5.69875 -5.04151,12.9987 -2.71509,19.57881h-62.14844v78.83333h78.83333v-64.82194c1.18335,0.20724 2.38199,0.31493 3.58333,0.32194c11.87412,0 21.5,-9.62588 21.5,-21.5c0,-11.87412 -9.62588,-21.5 -21.5,-21.5zM136.16667,28.66667c-7.91608,0 -14.33333,6.41725 -14.33333,14.33333c0,7.91608 6.41725,14.33333 14.33333,14.33333c7.91608,0 14.33333,-6.41725 14.33333,-14.33333c0,-7.91608 -6.41725,-14.33333 -14.33333,-14.33333zM28.66667,64.5h14.33333h7.16667h14.33333v7.16667h-14.33333v28.66667h-7.16667v-28.66667h-14.33333zM100.33333,64.5v71.66667h-45.79948c6.52167,12.75667 19.78448,21.5 35.04948,21.5c19.63667,0 36.04441,-14.04443 38.98275,-33.53776c0.28667,-1.935 0.43392,-3.87224 0.43392,-5.8789v-53.75zM143.33333,64.5v7.16667v46.58333v16.85286c12.34817,-3.16767 21.5,-14.25136 21.5,-27.60286v-43z"></path></g></g></svg>